# xmcd
#
# Track frame offsets: 
#        150
#        13802
#        29895
#        38440
#        57317
#        71505
#        86542
#        104505
#        117155
#        149352
#        164775
#        179007
#        192842
#
# Disc length: 2837 seconds
#
# Revision: 0
# Processed by: cddbd v1.4PL0 Copyright (c) Steve Scherf et al.
# Submitted via: ExactAudioCopy v0.95a3
#
DISCID=be0b130d
DTITLE=Μαρια Θωιδου - η γυναικα και το μηλο
DYEAR=1997
DGENRE=Ballad
TTITLE0=Τι να σημαινει
TTITLE1=Μα δεν μπορω
TTITLE2=Απ'αστρο σ' αστρο
TTITLE3=Το φιδι
TTITLE4=Του γελιου σου η γευση
TTITLE5=Για ενος ονειρου τη μορφη
TTITLE6=Ποθος
TTITLE7=Λευκα
TTITLE8=Χαμεμηλον
TTITLE9=Ακομα νοιωθεις
TTITLE10=Κι ο,τι ψαχνω
TTITLE11=Σε χανω
TTITLE12=Ηχογραφηση
EXTD=
EXTT0=
EXTT1=
EXTT2=
EXTT3=
EXTT4=
EXTT5=
EXTT6=
EXTT7=
EXTT8=
EXTT9=
EXTT10=
EXTT11=
EXTT12=
PLAYORDER=
